<svg width="40" height="40" viewBox="0 0 40 40" fill="none" xmlns="http://www.w3.org/2000/svg">
<mask id="mask0_100_85" style="mask-type:alpha" maskUnits="userSpaceOnUse" x="0" y="0" width="40" height="40">
<rect width="40" height="40" fill="currentColor"/>
</mask>
<g mask="url(#mask0_100_85)">
<path d="M8.44058 34.1666C7.72419 34.1666 7.11058 33.9112 6.59975 33.4003C6.08891 32.8895 5.8335 32.2759 5.8335 31.5595V8.44034C5.8335 7.72395 6.08891 7.11034 6.59975 6.5995C7.11058 6.08867 7.72419 5.83325 8.44058 5.83325H21.481C21.8704 5.83325 22.1707 6.0102 22.3818 6.36408C22.5932 6.71825 22.6092 7.08756 22.4297 7.472C22.2495 7.92784 22.1093 8.39381 22.0093 8.86992C21.9091 9.34603 21.8589 9.84089 21.8589 10.3545C21.8589 12.5089 22.6181 14.3453 24.1364 15.8637C25.6547 17.382 27.4911 18.1412 29.6456 18.1412C30.1592 18.1412 30.6541 18.091 31.1302 17.9908C31.6063 17.8908 32.0722 17.7506 32.5281 17.5703C32.9339 17.4081 33.3085 17.4258 33.6518 17.6233C33.9952 17.821 34.1668 18.1196 34.1668 18.5191V31.5595C34.1668 32.2759 33.9114 32.8895 33.4006 33.4003C32.8897 33.9112 32.2761 34.1666 31.5597 34.1666H8.44058ZM10.6414 27.7753H29.3589L23.6656 20.1878L18.5247 26.8195L14.9039 22.237L10.6414 27.7753ZM29.6397 14.8933C29.3414 14.8933 29.0934 14.7928 28.8956 14.592C28.6975 14.3914 28.5985 14.1428 28.5985 13.8462V11.4187H26.1539C25.8572 11.4187 25.6086 11.3178 25.4081 11.1162C25.2072 10.9145 25.1068 10.6645 25.1068 10.3662C25.1068 10.0678 25.2072 9.81964 25.4081 9.62158C25.6086 9.42381 25.8572 9.32492 26.1539 9.32492H28.5985V6.88034C28.5985 6.58367 28.6993 6.33506 28.901 6.1345C29.1027 5.93367 29.3527 5.83325 29.651 5.83325C29.9493 5.83325 30.1975 5.93367 30.3956 6.1345C30.5934 6.33506 30.6922 6.58367 30.6922 6.88034V9.32492H33.1197C33.4164 9.32492 33.665 9.42575 33.8656 9.62742C34.0664 9.82909 34.1668 10.0791 34.1668 10.3774C34.1668 10.6758 34.0664 10.9238 33.8656 11.1216C33.665 11.3196 33.4164 11.4187 33.1197 11.4187H30.6922V13.8462C30.6922 14.1428 30.5914 14.3914 30.3897 14.592C30.1881 14.7928 29.9381 14.8933 29.6397 14.8933Z" fill="currentColor"/>
</g>
</svg>
