<svg width="24" height="25" viewBox="0 0 24 25" fill="none" xmlns="http://www.w3.org/2000/svg">
<mask id="mask0_99_49" style="mask-type:alpha" maskUnits="userSpaceOnUse" x="0" y="0" width="24" height="25">
<rect y="0.468262" width="24" height="24" fill="currentColor"/>
</mask>
<g mask="url(#mask0_99_49)">
<path d="M7.30775 20.9682C6.81058 20.9682 6.385 20.7912 6.031 20.4372C5.677 20.0832 5.5 19.6577 5.5 19.1605V6.46824H5.25C5.0375 6.46824 4.85942 6.39632 4.71575 6.25249C4.57192 6.10866 4.5 5.93049 4.5 5.71799C4.5 5.50532 4.57192 5.32724 4.71575 5.18374C4.85942 5.04007 5.0375 4.96824 5.25 4.96824H9C9 4.72341 9.08625 4.51474 9.25875 4.34224C9.43108 4.16991 9.63967 4.08374 9.8845 4.08374H14.1155C14.3603 4.08374 14.5689 4.16991 14.7413 4.34224C14.9138 4.51474 15 4.72341 15 4.96824H18.75C18.9625 4.96824 19.1406 5.04016 19.2843 5.18399C19.4281 5.32782 19.5 5.50599 19.5 5.71849C19.5 5.93116 19.4281 6.10924 19.2843 6.25274C19.1406 6.39641 18.9625 6.46824 18.75 6.46824H18.5V19.1605C18.5 19.6577 18.323 20.0832 17.969 20.4372C17.615 20.7912 17.1894 20.9682 16.6923 20.9682H7.30775ZM17 6.46824H7V19.1605C7 19.2503 7.02883 19.3241 7.0865 19.3817C7.14417 19.4394 7.21792 19.4682 7.30775 19.4682H16.6923C16.7821 19.4682 16.8558 19.4394 16.9135 19.3817C16.9712 19.3241 17 19.2503 17 19.1605V6.46824ZM10.1543 17.4682C10.3668 17.4682 10.5448 17.3964 10.6885 17.2527C10.832 17.1089 10.9037 16.9307 10.9037 16.7182V9.21824C10.9037 9.00574 10.8318 8.82757 10.688 8.68374C10.5443 8.54007 10.3662 8.46824 10.1535 8.46824C9.941 8.46824 9.76292 8.54007 9.61925 8.68374C9.47575 8.82757 9.404 9.00574 9.404 9.21824V16.7182C9.404 16.9307 9.47583 17.1089 9.6195 17.2527C9.76333 17.3964 9.94158 17.4682 10.1543 17.4682ZM13.8465 17.4682C14.059 17.4682 14.2371 17.3964 14.3807 17.2527C14.5242 17.1089 14.596 16.9307 14.596 16.7182V9.21824C14.596 9.00574 14.5242 8.82757 14.3805 8.68374C14.2367 8.54007 14.0584 8.46824 13.8458 8.46824C13.6333 8.46824 13.4552 8.54007 13.3115 8.68374C13.168 8.82757 13.0962 9.00574 13.0962 9.21824V16.7182C13.0962 16.9307 13.1682 17.1089 13.312 17.2527C13.4557 17.3964 13.6338 17.4682 13.8465 17.4682Z" fill="currentColor"/>
</g>
</svg>
