<svg width="25" height="25" viewBox="0 0 25 25" fill="none" xmlns="http://www.w3.org/2000/svg">
<mask id="mask0_99_37" style="mask-type:alpha" maskUnits="userSpaceOnUse" x="0" y="0" width="25" height="25">
<rect x="0.604492" y="0.468262" width="24" height="24" fill="currentColor"/>
</mask>
<g mask="url(#mask0_99_37)">
<path d="M11.8546 13.2182H5.85464L7.39689 14.7452C7.54555 14.8938 7.62155 15.073 7.62489 15.2827C7.62805 15.4922 7.55205 15.6745 7.39689 15.8297C7.24172 15.9848 7.06097 16.0624 6.85464 16.0624C6.6483 16.0624 6.46755 15.9848 6.31239 15.8297L3.58339 13.1009C3.48989 13.0072 3.42389 12.9085 3.38539 12.8047C3.34689 12.7008 3.32764 12.5887 3.32764 12.4682C3.32764 12.3477 3.34689 12.2355 3.38539 12.1317C3.42389 12.0278 3.48989 11.9291 3.58339 11.8354L6.31239 9.10666C6.46105 8.958 6.63764 8.882 6.84214 8.87866C7.04664 8.8755 7.22647 8.9515 7.38164 9.10666C7.53664 9.26183 7.61414 9.44 7.61414 9.64116C7.61414 9.8425 7.53664 10.0207 7.38164 10.1759L5.83914 11.7182H11.8546V5.70266L10.2969 7.26041C10.1482 7.40908 9.97422 7.4825 9.77489 7.48066C9.57555 7.47866 9.3983 7.40016 9.24314 7.24516C9.08797 7.09 9.01039 6.91175 9.01039 6.71041C9.01039 6.50925 9.08797 6.33108 9.24314 6.17591L11.9719 3.44691C12.0656 3.35341 12.1643 3.28741 12.2681 3.24891C12.372 3.21041 12.4841 3.19116 12.6046 3.19116C12.7251 3.19116 12.8373 3.21041 12.9411 3.24891C13.045 3.28741 13.1437 3.35341 13.2374 3.44691L15.9816 6.19116C16.1303 6.34 16.2062 6.51408 16.2094 6.71341C16.2126 6.91275 16.1366 7.09 15.9816 7.24516C15.8265 7.40016 15.6482 7.47766 15.4469 7.47766C15.2457 7.47766 15.0676 7.40016 14.9124 7.24516L13.3546 5.70266V11.7182H19.3546L17.8124 10.1912C17.6637 10.0425 17.5877 9.86333 17.5844 9.65366C17.5812 9.44416 17.6572 9.26183 17.8124 9.10666C17.9676 8.9515 18.1483 8.87391 18.3546 8.87391C18.561 8.87391 18.7417 8.9515 18.8969 9.10666L21.6259 11.8354C21.7194 11.9291 21.7854 12.0278 21.8239 12.1317C21.8624 12.2355 21.8816 12.3477 21.8816 12.4682C21.8816 12.5887 21.8624 12.7008 21.8239 12.8047C21.7854 12.9085 21.7194 13.0072 21.6259 13.1009L18.8816 15.8452C18.7328 15.9938 18.5587 16.0672 18.3594 16.0652C18.1601 16.0633 17.9828 15.9848 17.8276 15.8297C17.6726 15.6745 17.5951 15.4963 17.5951 15.2952C17.5951 15.0938 17.6726 14.9156 17.8276 14.7604L19.3701 13.2182H13.3546V19.2182L14.8816 17.6759C15.0303 17.5272 15.2095 17.4512 15.4191 17.4479C15.6286 17.4447 15.811 17.5207 15.9661 17.6759C16.1213 17.8311 16.1989 18.0118 16.1989 18.2182C16.1989 18.4245 16.1213 18.6052 15.9661 18.7604L13.2374 21.4894C13.1437 21.5829 13.045 21.6489 12.9411 21.6874C12.8373 21.7259 12.7251 21.7452 12.6046 21.7452C12.4841 21.7452 12.372 21.7259 12.2681 21.6874C12.1643 21.6489 12.0656 21.5829 11.9719 21.4894L9.22764 18.7452C9.07897 18.5963 9.00564 18.4197 9.00764 18.2152C9.00947 18.0108 9.08797 17.8311 9.24314 17.6759C9.3983 17.5207 9.57647 17.4432 9.77764 17.4432C9.97897 17.4432 10.1572 17.5207 10.3124 17.6759L11.8546 19.2337V13.2182Z" fill="currentColor"/>
</g>
</svg>
