<svg width="24" height="25" viewBox="0 0 24 25" fill="none" xmlns="http://www.w3.org/2000/svg">
<mask id="mask0_99_43" style="mask-type:alpha" maskUnits="userSpaceOnUse" x="0" y="0" width="24" height="25">
<rect y="0.468262" width="24" height="24" fill="currentColor"/>
</mask>
<g mask="url(#mask0_99_43)">
<path d="M9.65775 16.8068C7.62058 16.5363 5.91833 16.0026 4.551 15.2058C3.18367 14.4089 2.5 13.4964 2.5 12.4683C2.5 11.2388 3.41767 10.1814 5.253 9.29626C7.08817 8.41093 9.33717 7.96826 12 7.96826C14.6628 7.96826 16.9118 8.41093 18.747 9.29626C20.5823 10.1814 21.5 11.2388 21.5 12.4683C21.5 13.2734 21.0715 14.0215 20.2145 14.7125C19.3573 15.4035 18.2173 15.9464 16.7943 16.3413C16.5916 16.4054 16.4086 16.3792 16.2452 16.2625C16.0817 16.1458 16 15.9862 16 15.7835C16 15.5542 16.0683 15.3533 16.2048 15.1808C16.3413 15.0083 16.5159 14.8848 16.7288 14.8105C17.7929 14.4772 18.6042 14.0884 19.1625 13.6443C19.7208 13.1999 20 12.8079 20 12.4683C20 11.9158 19.2875 11.2776 17.8625 10.5538C16.4375 9.83009 14.4833 9.46826 12 9.46826C9.51667 9.46826 7.5625 9.83009 6.1375 10.5538C4.7125 11.2776 4 11.9158 4 12.4683C4 12.9068 4.48908 13.4132 5.46725 13.9875C6.44558 14.5618 7.75008 14.9811 9.38075 15.2453L8.24225 14.1068C8.10375 13.9683 8.03292 13.7942 8.02975 13.5845C8.02658 13.375 8.09742 13.1978 8.24225 13.0528C8.38708 12.9079 8.56275 12.8355 8.76925 12.8355C8.97558 12.8355 9.15117 12.9079 9.296 13.0528L11.7902 15.547C11.9711 15.7278 12.0615 15.9388 12.0615 16.1798C12.0615 16.4208 11.9711 16.6317 11.7902 16.8125L9.296 19.3068C9.15767 19.4451 8.98625 19.5184 8.78175 19.5268C8.57725 19.5351 8.39742 19.4618 8.24225 19.3068C8.09742 19.1618 8.02242 18.9887 8.01725 18.7875C8.01208 18.5862 8.082 18.4079 8.227 18.2528L9.65775 16.8068Z" fill="currentColor"/>
</g>
</svg>
